# xmcd
#
# Track frame offsets: 
#        150
#        9848
#        21395
#        30971
#        40803
#        49457
#        62531
#        70765
#        82730
#        94579
#        106592
#        121661
#        135839
#        145368
#
# Disc length: 2087 seconds
#
# Revision: 1
# Processed by: cddbd v1.5.2PL0 Copyright (c) Steve Scherf et al.
# Submitted via: ExactAudioCopy v0.99pb5
#
DISCID=9e08250e
DTITLE=Michael Bublè and Frank Sinatra - The Kings of Swing
DYEAR=2005
DGENRE=Swing
TTITLE0=Tell Him He's Yours (Michael Bublè)
TTITLE1=You Do Something to Me (Frank Sinatra)
TTITLE2=Me and Mrs. You (Michael Bublè)
TTITLE3=I've Got The World On A String (Frank Sinatra)
TTITLE4=That's How It Goes (Michael Bublè)
TTITLE5=I Get I Kick Out Of You (Frank Sinatra)
TTITLE6=Guess I'm Falling For You (Michael Bublè)
TTITLE7=A Foggy Day (Frank Sinatra)
TTITLE8=Peroxide Swing (Michael Bublè)
TTITLE9=Lover (Frank Sinatra)
TTITLE10=Love At First Sight (Michael Bublè)
TTITLE11=Don't Worry 'Bout Me (Frank Sinatra)
TTITLE12=Anyone To Love (Michael Bublè)
TTITLE13=My Funny Valentine (Frank Sinatra)
EXTD=
EXTT0=
EXTT1=
EXTT2=
EXTT3=
EXTT4=
EXTT5=
EXTT6=
EXTT7=
EXTT8=
EXTT9=
EXTT10=
EXTT11=
EXTT12=
EXTT13=
PLAYORDER=
